<?xml version="1.0" encoding="UTF-8" standalone="no"?>
<svg
   viewBox="0 0 128 128"
   version="1.1"
   id="svg4"
   sodipodi:docname="css3.svg"
   inkscape:version="1.1.2 (0a00cf5339, 2022-02-04, custom)"
   xmlns:inkscape="http://www.inkscape.org/namespaces/inkscape"
   xmlns:sodipodi="http://sodipodi.sourceforge.net/DTD/sodipodi-0.dtd"
   xmlns="http://www.w3.org/2000/svg"
   xmlns:svg="http://www.w3.org/2000/svg">
  <defs
     id="defs8" />
  <sodipodi:namedview
     id="namedview6"
     pagecolor="#ffffff"
     bordercolor="#666666"
     borderopacity="1.0"
     inkscape:pageshadow="2"
     inkscape:pageopacity="0.0"
     inkscape:pagecheckerboard="0"
     showgrid="false"
     inkscape:zoom="2.9112912"
     inkscape:cx="121.0803"
     inkscape:cy="17.346255"
     inkscape:window-width="1366"
     inkscape:window-height="713"
     inkscape:window-x="0"
     inkscape:window-y="0"
     inkscape:window-maximized="1"
     inkscape:current-layer="svg4" />
  <path
     fill="#1572B6"
     d="M19.67 26l8.069 90.493 36.206 10.05 36.307-10.063L108.33 26H19.67zm69.21 50.488L86.53 98.38l.009 1.875L64 106.55v.001l-.018.015-22.719-6.225L39.726 83h11.141l.79 8.766 12.347 3.295-.004.015v-.032l12.394-3.495L77.702 77H51.795l-.222-2.355-.506-5.647L50.802 66h27.886l1.014-11H37.229l-.223-2.589-.506-6.03L36.235 43h55.597l-.267 3.334-2.685 30.154M89 14.374L81.851 6H89V1H73v4.363L81.39 13H73v5h16zm-19 0L63.193 6H70V1H55v4.363L62.733 13H55v5h15zM52 13h-8V6h8V1H38v17h14z"
     id="path2" />
  <path
     fill="#1572b6"
     d="M 89,14.374 81.851,6 H 89 V 1 H 73 V 5.363 L 81.39001,13 H 73 v 5 h 16 z m -19,0 L 63.19301,6 H 70 V 1 H 55.00001 V 5.363 L 62.733,13 h -7.73299 v 5 H 70 Z M 52.00001,13 h -8 V 6 h 8 V 1 h -14 v 17 h 14 z"
     id="path2-3"
     sodipodi:nodetypes="ccccccccccccccccccccccccccccccc"
     style="fill:#f5f5f5;fill-opacity:1" />
</svg>
