<?xml version="1.0" encoding="UTF-8" standalone="no"?>
<svg
   viewBox="0 0 128 128"
   version="1.1"
   id="svg34"
   sodipodi:docname="DockerLogo.svg"
   inkscape:version="1.1.2 (0a00cf5339, 2022-02-04, custom)"
   xmlns:inkscape="http://www.inkscape.org/namespaces/inkscape"
   xmlns:sodipodi="http://sodipodi.sourceforge.net/DTD/sodipodi-0.dtd"
   xmlns="http://www.w3.org/2000/svg"
   xmlns:svg="http://www.w3.org/2000/svg">
  <defs
     id="defs38" />
  <sodipodi:namedview
     id="namedview36"
     pagecolor="#ffffff"
     bordercolor="#666666"
     borderopacity="1.0"
     inkscape:pageshadow="2"
     inkscape:pageopacity="0.0"
     inkscape:pagecheckerboard="0"
     showgrid="false"
     inkscape:zoom="4.1171875"
     inkscape:cx="117.67742"
     inkscape:cy="83.43074"
     inkscape:window-width="1366"
     inkscape:window-height="713"
     inkscape:window-x="0"
     inkscape:window-y="0"
     inkscape:window-maximized="1"
     inkscape:current-layer="svg34" />
  <path
     fill-rule="evenodd"
     clip-rule="evenodd"
     fill="#F5F5F5"
     d="M20 96.9v-8.1c0-1.1.7-1.9 1.8-1.9h.3c1.1 0 1.8.9 1.8 1.9v17c0 4.1-2 7.4-5.6 9.5-1.7 1-3.5 1.5-5.4 1.5h-.8c-4.1 0-7.4-2-9.5-5.6-1-1.7-1.5-3.5-1.5-5.4v-.8c0-4.1 2-7.4 5.6-9.5 1.7-1 3.5-1.5 5.4-1.5h.8c2.7.1 5.1 1.1 7.1 2.9zm-15.1 8.5c0 3 1.5 5.2 4.1 6.7 1.1.6 2.2.9 3.4.9 2.9 0 5.1-1.4 6.6-3.9.7-1.2 1-2.4 1-3.8 0-2.6-1.2-4.6-3.3-6.1-1.3-.9-2.7-1.4-4.2-1.4-3.2 0-5.5 1.6-6.9 4.5-.5 1-.7 2.1-.7 3.1zm32.2-11.3h.5c4.4 0 7.8 2.1 9.9 6 .9 1.5 1.3 3.2 1.3 5v.8c0 4.1-2 7.4-5.6 9.5-1.7 1-3.5 1.5-5.4 1.5H37c-4.1 0-7.4-2-9.5-5.6-1-1.7-1.5-3.5-1.5-5.4v-.8c0-4.1 2.1-7.4 5.6-9.5 1.7-1.1 3.6-1.5 5.5-1.5zm-7.2 11.3c0 2.9 1.4 5 3.9 6.5 1.2.7 2.4 1 3.8 1 2.9 0 5-1.5 6.5-3.9.7-1.2 1-2.4 1-3.8 0-2.7-1.3-4.8-3.5-6.3-1.2-.8-2.6-1.2-4-1.2-3.2 0-5.5 1.6-6.9 4.5-.6 1.1-.8 2.2-.8 3.2zm34.8-7.2c-.6-.3-1.7-.4-2.3-.4-3.2-.1-5.5 1.7-6.9 4.5-.5 1-.7 2-.7 3.1 0 3.3 1.7 5.6 4.6 7 1.1.5 2.4.6 3.6.6 1 0 2.5-.6 3.4-1.1l.2-.1h.8c.9.2 1.5.7 1.5 1.7v.4c0 2.3-4.3 2.9-5.9 3-5.7.4-10-2.7-11.6-8.2-.3-.9-.4-1.9-.4-2.9v-.8c0-4.1 2.1-7.4 5.6-9.5 1.7-1 3.5-1.5 5.4-1.5h.8c2 0 3.9.6 5.6 1.7l.1.1.1.1c.2.3.3.6.3 1v.4c0 1-.7 1.5-1.6 1.7H67c-.5 0-1.8-.6-2.3-.8zm12.4 2.6c1.5-1.5 3-3 4.5-4.4.4-.4 2-2.1 2.6-2.1h.8c.9.2 1.5.7 1.5 1.7v.4c0 .6-.7 1.4-1.2 1.8l-2.7 2.7-4.6 4.7c2 2 4 4 5.9 6l1.6 1.7c.2.2.5.4.6.7.2.3.3.6.3.9v.5c-.2.9-.8 1.6-1.7 1.6h-.3c-.6 0-1.3-.7-1.8-1.1-.9-.8-1.8-1.7-2.6-2.6l-2.9-2.9v4.6c0 1.1-.7 1.9-1.8 1.9H75c-1.1 0-1.8-.9-1.8-1.9V88.9c0-1.1.7-1.9 1.8-1.9h.3c1.1 0 1.8.8 1.8 1.9v11.9zm47.6-6.6h.4c1.1 0 1.9.8 1.9 1.9 0 1.6-1.5 2-2.8 2-1.7 0-3.4 1-4.5 2.2-1.5 1.5-2.1 3.3-2.1 5.4v9.2c0 1.1-.7 1.9-1.8 1.9h-.3c-1.1 0-1.8-.9-1.8-1.9v-9.8c0-3.8 1.8-6.8 4.9-9 1.8-1.2 3.9-1.9 6.1-1.9zm-27.1 18.3c1.4.5 3 .4 4.4.2.7-.3 2.6-1.1 3.3-1h.2c.4.2.8.5 1 .9.5 1 .3 2-.7 2.6l-.3.2c-3.6 2.1-7.5 1.8-11.1-.2-1.7-.9-3-2.3-4-4l-.2-.4c-2.3-4-2-8.3.6-12.1.9-1.3 2.1-2.3 3.5-3.1l.5-.3c3.4-2 7.1-1.8 10.6-.1 1.9.9 3.4 2.3 4.5 4.1l.2.3c.8 1.3-.2 2.5-1.2 3.3-1.2.9-2.4 2-3.5 3-2.7 2.2-5.3 4.4-7.8 6.6zm-3.3-2.3l8.5-7.3c1-.8 2-1.7 3-2.6-.8-1-2.1-1.7-3.1-2.1-2.2-.8-4.4-.6-6.4.6-2.6 1.5-3.8 4-3.7 7 0 1.2.4 2.3 1 3.4.2.4.4.7.7 1M73.7 33.7H85v11.5h5.7c2.6 0 5.3-.5 7.8-1.3 1.2-.4 2.6-1 3.8-1.7-1.6-2.1-2.4-4.7-2.6-7.3-.3-3.5.4-8.1 2.8-10.8l1.2-1.4 1.4 1.1c3.6 2.9 6.5 6.8 7.1 11.4 4.3-1.3 9.3-1 13.1 1.2l1.5.9-.8 1.6c-3.2 6.2-9.9 8.2-16.4 7.8-9.8 24.3-31 35.8-56.8 35.8-13.3 0-25.5-5-32.5-16.8l-.1-.2-1-2.1c-2.4-5.2-3.1-10.9-2.6-16.6l.2-1.7h9.6V33.7h11.3V22.4h22.5V11.1h13.5v22.6z"
     id="path2"
     style="fill:#3a4d54;fill-opacity:1" />
  <path
     fill-rule="evenodd"
     clip-rule="evenodd"
     fill="#F5F5F5"
     d="m 20,96.900003 v -8.1 c 0.12746,-2.793478 3.84227,-2.181526 3.9,0 V 105.8 c 0,4.1 -2,7.4 -5.6,9.5 -1.7,1 -3.5,1.5 -5.4,1.5 h -0.8 c -4.1,0 -7.4,-2 -9.5,-5.6 -1,-1.7 -1.5,-3.5 -1.5,-5.4 V 105 c 0,-4.1 2,-7.4 5.6,-9.499997 1.7,-1 3.5,-1.5 5.4,-1.5 h 0.8 c 2.7,0.1 5.1,1.1 7.1,2.9 z M 4.9,105.4 c 0,3 1.5,5.2 4.1,6.7 1.1,0.6 2.2,0.9 3.4,0.9 2.9,0 5.1,-1.4 6.6,-3.9 0.7,-1.2 1,-2.4 1,-3.8 0,-2.6 -1.2,-4.6 -3.3,-6.1 -1.3,-0.9 -2.7,-1.4 -4.2,-1.4 -3.2,0 -5.5,1.6 -6.9,4.5 -0.5,1 -0.7,2.1 -0.7,3.1 z M 37.1,94.100003 h 0.5 c 4.4,0 7.8,2.1 9.9,5.999997 0.9,1.5 1.3,3.2 1.3,5 v 0.8 c 0,4.1 -2,7.4 -5.6,9.5 -1.7,1 -3.5,1.5 -5.4,1.5 H 37 c -4.1,0 -7.4,-2 -9.5,-5.6 -1,-1.7 -1.5,-3.5 -1.5,-5.4 v -0.8 c 0,-4.1 2.1,-7.4 5.6,-9.499997 1.7,-1.1 3.6,-1.5 5.5,-1.5 z M 29.9,105.4 c 0,2.9 1.4,5 3.9,6.5 1.2,0.7 2.4,1 3.8,1 2.9,0 5,-1.5 6.5,-3.9 0.7,-1.2 1,-2.4 1,-3.8 0,-2.7 -1.3,-4.8 -3.5,-6.3 -1.2,-0.8 -2.6,-1.2 -4,-1.2 -3.2,0 -5.5,1.6 -6.9,4.5 -0.6,1.1 -0.8,2.2 -0.8,3.2 z m 34.8,-7.2 c -0.6,-0.3 -1.7,-0.4 -2.3,-0.4 -3.2,-0.1 -5.5,1.7 -6.9,4.5 -0.5,1 -0.7,2 -0.7,3.1 0,3.3 1.7,5.6 4.6,7 1.1,0.5 2.4,0.6 3.6,0.6 1,0 2.5,-0.6 3.4,-1.1 l 0.2,-0.1 h 0.8 c 0.9,0.2 1.5,0.7 1.5,1.7 v 0.4 c 0,2.3 -4.3,2.9 -5.9,3 -5.7,0.4 -10,-2.7 -11.6,-8.2 -0.3,-0.9 -0.4,-1.9 -0.4,-2.9 V 105 c 0,-4.1 2.1,-7.4 5.6,-9.499997 1.7,-1 3.5,-1.5 5.4,-1.5 h 0.8 c 2,0 3.9,0.6 5.6,1.7 l 0.1,0.1 0.1,0.1 c 0.2,0.3 0.3,0.6 0.3,1 V 97.3 c 0,1 -0.7,1.5 -1.6,1.7 H 67 c -0.5,0 -1.8,-0.6 -2.3,-0.8 z m 12.4,2.6 c 1.5,-1.5 3,-3 4.5,-4.399997 0.4,-0.4 2,-2.1 2.6,-2.1 H 85 c 0.9,0.2 1.5,0.7 1.5,1.7 v 0.4 c 0,0.6 -0.7,1.399997 -1.2,1.799997 l -2.7,2.7 -4.6,4.7 c 2,2 4,4 5.9,6 l 1.6,1.7 c 0.2,0.2 0.5,0.4 0.6,0.7 0.2,0.3 0.3,0.6 0.3,0.9 v 0.5 c -0.2,0.9 -0.8,1.6 -1.7,1.6 h -0.3 c -0.6,0 -1.3,-0.7 -1.8,-1.1 -0.9,-0.8 -1.8,-1.7 -2.6,-2.6 l -2.9,-2.9 v 4.6 c 0,1.1 -0.7,1.9 -1.8,1.9 H 75 c -1.1,0 -1.8,-0.9 -1.8,-1.9 V 88.900003 c 0.19447,-2.832429 3.84843,-2.130169 3.9,0 z m 47.6,-6.599997 h 0.4 c 1.1,0 1.9,0.8 1.9,1.9 C 127,97.7 125.5,98.1 124.2,98.1 c -1.7,0 -3.4,1 -4.5,2.2 -1.5,1.5 -2.1,3.3 -2.1,5.4 v 9.2 c 0,1.1 -0.7,1.9 -1.8,1.9 h -0.3 c -1.1,0 -1.8,-0.9 -1.8,-1.9 v -9.8 c 0,-3.8 1.8,-6.8 4.9,-8.999997 1.8,-1.2 3.9,-1.9 6.1,-1.9 z M 97.6,112.5 c 1.4,0.5 3,0.4 4.4,0.2 0.7,-0.3 2.6,-1.1 3.3,-1 h 0.2 c 0.4,0.2 0.8,0.5 1,0.9 0.5,1 0.3,2 -0.7,2.6 l -0.3,0.2 c -3.6,2.1 -7.5,1.8 -11.1,-0.2 -1.7,-0.9 -3,-2.3 -4,-4 l -0.2,-0.4 c -2.3,-4 -2,-8.3 0.6,-12.1 0.9,-1.3 2.1,-2.299997 3.5,-3.099997 l 0.5,-0.3 c 3.4,-2 7.1,-1.8 10.6,-0.1 1.9,0.9 3.4,2.299997 4.5,4.099997 l 0.2,0.3 c 0.8,1.3 -0.2,2.5 -1.2,3.3 -1.2,0.9 -2.4,2 -3.5,3 -2.7,2.2 -5.3,4.4 -7.8,6.6 z m -3.3,-2.3 8.5,-7.3 c 1,-0.8 2,-1.7 3,-2.6 -0.8,-1 -2.1,-1.7 -3.1,-2.1 -2.2,-0.8 -4.4,-0.6 -6.4,0.6 -2.6,1.5 -3.8,4 -3.7,7 0,1.2 0.4,2.3 1,3.4 0.2,0.4 0.4,0.7 0.7,1"
     id="path2-3"
     style="fill:#f5f5f5;fill-opacity:1"
     sodipodi:nodetypes="cccscsscsscsccscscscscssscsscsscsscsscscscscsccsscscccssccsscsscccsscscccscssccccccscsscccsssscccsssscsssssscsccccscccccccccccccccccccccc" />
  <path
     fill="#00AADA"
     d="M110.2 37.9c.8-5.9-3.6-10.5-6.4-12.7-3.1 3.6-3.6 13.2 1.3 17.2-2.8 2.4-8.5 4.7-14.5 4.7H18.4c-.6 6.2.5 11.9 3 16.8l.8 1.5c.5.9 1.1 1.7 1.7 2.6 3 .2 5.7.3 8.2.2 4.9-.1 8.9-.7 12-1.7.5-.2.9.1 1.1.5.2.5-.1.9-.5 1.1-.4.1-.8.3-1.3.4-2.4.7-5 1.1-8.3 1.3h-.6c-1.3.1-2.7.1-4.2.1-1.6 0-3.1 0-4.9-.1 6 6.8 15.4 10.8 27.2 10.8 25 0 46.2-11.1 55.5-35.9 6.7.7 13.1-1 16-6.7-4.5-2.6-10.5-1.8-13.9-.1z"
     id="path4" />
  <path
     fill="#28B8EB"
     d="M110.2 37.9c.8-5.9-3.6-10.5-6.4-12.7-3.1 3.6-3.6 13.2 1.3 17.2-2.8 2.4-8.5 4.7-14.5 4.7h-68c-.3 9.5 3.2 16.7 9.5 21 4.9-.1 8.9-.7 12-1.7.5-.2.9.1 1.1.5.2.5-.1.9-.5 1.1-.4.1-.8.3-1.3.4-2.4.7-5.2 1.2-8.5 1.4l-.1-.1c8.5 4.4 20.8 4.3 35-1.1 15.8-6.1 30.6-17.7 40.9-30.9-.2.1-.3.2-.5.2z"
     id="path6" />
  <path
     fill="#028BB8"
     d="M18.5 54.6c.4 3.3 1.4 6.4 2.9 9.3l.8 1.5c.5.9 1.1 1.7 1.7 2.6 3 .2 5.7.3 8.2.2 4.9-.1 8.9-.7 12-1.7.5-.2.9.1 1.1.5.2.5-.1.9-.5 1.1-.4.1-.8.3-1.3.4-2.4.7-5.2 1.2-8.5 1.4h-.4c-1.3.1-2.7.1-4.1.1-1.6 0-3.2 0-4.9-.1 6 6.8 15.5 10.8 27.3 10.8 21.4 0 40-8.1 50.8-26H18.5v-.1z"
     id="path8" />
  <path
     fill="#019BC6"
     d="M23.3 54.6c1.3 5.8 4.3 10.4 8.8 13.5 4.9-.1 8.9-.7 12-1.7.5-.2.9.1 1.1.5.2.5-.1.9-.5 1.1-.4.1-.8.3-1.3.4-2.4.7-5.2 1.2-8.6 1.4 8.5 4.4 20.8 4.3 34.9-1.1 8.5-3.3 16.8-8.2 24.2-14.1H23.3z"
     id="path10" />
  <path
     fill-rule="evenodd"
     clip-rule="evenodd"
     fill="#00ACD3"
     d="M28.2 35.5H38v9.8h-9.8v-9.8zm.8.9h.8v8.1H29v-8.1zm1.5 0h.8v8.1h-.8v-8.1zm1.5 0h.8v8.1H32v-8.1zm1.4 0h.8v8.1h-.8v-8.1zm1.5 0h.8v8.1h-.8v-8.1zm1.5 0h.8v8.1h-.8v-8.1zm3.1-12.1h9.8V34h-9.8v-9.7zm.8.8h.8v8.1h-.8v-8.1zm1.5 0h.8v8.1h-.8v-8.1zm1.4 0h.8v8.1h-.8v-8.1zm1.5 0h.8v8.1h-.8v-8.1zm1.5 0h.8v8.1h-.8v-8.1zm1.5 0h.8v8.1h-.8v-8.1z"
     id="path12" />
  <path
     fill-rule="evenodd"
     clip-rule="evenodd"
     fill="#23C2EE"
     d="M39.5 35.5h9.8v9.8h-9.8v-9.8zm.8.9h.8v8.1h-.8v-8.1zm1.5 0h.8v8.1h-.8v-8.1zm1.4 0h.8v8.1h-.8v-8.1zm1.5 0h.8v8.1h-.8v-8.1zm1.5 0h.8v8.1h-.8v-8.1zm1.5 0h.8v8.1h-.8v-8.1z"
     id="path14" />
  <path
     fill-rule="evenodd"
     clip-rule="evenodd"
     fill="#00ACD3"
     d="M50.8 35.5h9.8v9.8h-9.8v-9.8zm.8.9h.8v8.1h-.8v-8.1zm1.4 0h.8v8.1H53v-8.1zm1.5 0h.8v8.1h-.8v-8.1zm1.5 0h.8v8.1H56v-8.1zm1.5 0h.8v8.1h-.8v-8.1zm1.4 0h.8v8.1h-.8v-8.1z"
     id="path16" />
  <path
     fill-rule="evenodd"
     clip-rule="evenodd"
     fill="#23C2EE"
     d="M50.8 24.3h9.8V34h-9.8v-9.7zm.8.8h.8v8.1h-.8v-8.1zm1.4 0h.8v8.1H53v-8.1zm1.5 0h.8v8.1h-.8v-8.1zm1.5 0h.8v8.1H56v-8.1zm1.5 0h.8v8.1h-.8v-8.1zm1.4 0h.8v8.1h-.8v-8.1zM62 35.5h9.8v9.8H62v-9.8zm.9.9h.8v8.1h-.8v-8.1zm1.4 0h.8v8.1h-.8v-8.1zm1.5 0h.8v8.1h-.8v-8.1zm1.5 0h.8v8.1h-.8v-8.1zm1.4 0h.8v8.1h-.8v-8.1zm1.5 0h.8v8.1h-.8v-8.1z"
     id="path18" />
  <path
     fill-rule="evenodd"
     clip-rule="evenodd"
     fill="#00ACD3"
     d="M62 24.3h9.8V34H62v-9.7zm.9.8h.8v8.1h-.8v-8.1zm1.4 0h.8v8.1h-.8v-8.1zm1.5 0h.8v8.1h-.8v-8.1zm1.5 0h.8v8.1h-.8v-8.1zm1.4 0h.8v8.1h-.8v-8.1zm1.5 0h.8v8.1h-.8v-8.1z"
     id="path20" />
  <path
     fill-rule="evenodd"
     clip-rule="evenodd"
     fill="#23C2EE"
     d="M62 13h9.8v9.8H62V13zm.9.8h.8V22h-.8v-8.2zm1.4 0h.8V22h-.8v-8.2zm1.5 0h.8V22h-.8v-8.2zm1.5 0h.8V22h-.8v-8.2zm1.4 0h.8V22h-.8v-8.2zm1.5 0h.8V22h-.8v-8.2z"
     id="path22" />
  <path
     fill-rule="evenodd"
     clip-rule="evenodd"
     fill="#00ACD3"
     d="M73.3 35.5h9.8v9.8h-9.8v-9.8zm.8.9h.8v8.1h-.8v-8.1zm1.5 0h.8v8.1h-.8v-8.1zm1.5 0h.8v8.1h-.8v-8.1zm1.4 0h.8v8.1h-.8v-8.1zm1.5 0h.8v8.1H80v-8.1zm1.5 0h.8v8.1h-.8v-8.1z"
     id="path24" />
  <path
     fill-rule="evenodd"
     clip-rule="evenodd"
     fill="#D4EEF1"
     d="M48.6 61.2c1.5 0 2.7 1.2 2.7 2.7 0 1.5-1.2 2.7-2.7 2.7-1.5 0-2.7-1.2-2.7-2.7.1-1.5 1.3-2.7 2.7-2.7"
     id="path26" />
  <path
     fill-rule="evenodd"
     clip-rule="evenodd"
     fill="#3A4D54"
     d="M48.6 61.9c.2 0 .5 0 .7.1-.2.1-.4.4-.4.7 0 .4.4.8.8.8.3 0 .6-.2.7-.4.1.2.1.5.1.7 0 1.1-.9 1.9-1.9 1.9-1.1 0-1.9-.9-1.9-1.9 0-1 .9-1.9 1.9-1.9M1 55.6h125.3c-2.7-.7-8.6-1.6-7.7-5.2-5 5.7-16.9 4-20 1.2-3.4 4.9-23 3-24.3-.8-4.2 5-17.3 5-21.5 0-1.4 3.8-21 5.7-24.3.8-3 2.8-15 4.5-20-1.2 1.1 3.5-4.8 4.5-7.5 5.2"
     id="path28" />
  <path
     fill="#BFDBE0"
     d="M55.8 80.6c-6.7-3.2-10.3-7.5-12.4-12.2-2.5.7-5.5 1.2-8.9 1.4-1.3.1-2.7.1-4.1.1-1.7 0-3.4 0-5.2-.1 6.1 6.1 13.7 10.8 27.6 10.9 1-.1 2-.1 3-.1z"
     id="path30" />
  <path
     fill="#D4EEF1"
     d="M45.9 72.7c-.9-1.3-1.8-2.8-2.5-4.3-2.5.7-5.5 1.2-8.9 1.4 2.4 1.3 5.8 2.5 11.4 2.9z"
     id="path32" />
</svg>
