<?xml version="1.0" encoding="UTF-8" standalone="no"?>
<svg
   viewBox="0 0 128 128"
   version="1.1"
   id="svg4"
   sodipodi:docname="html5.svg"
   inkscape:version="1.1.2 (0a00cf5339, 2022-02-04, custom)"
   xmlns:inkscape="http://www.inkscape.org/namespaces/inkscape"
   xmlns:sodipodi="http://sodipodi.sourceforge.net/DTD/sodipodi-0.dtd"
   xmlns="http://www.w3.org/2000/svg"
   xmlns:svg="http://www.w3.org/2000/svg">
  <defs
     id="defs8" />
  <sodipodi:namedview
     id="namedview6"
     pagecolor="#ffffff"
     bordercolor="#666666"
     borderopacity="1.0"
     inkscape:pageshadow="2"
     inkscape:pageopacity="0.0"
     inkscape:pagecheckerboard="0"
     showgrid="false"
     inkscape:zoom="1.4556456"
     inkscape:cx="99.268668"
     inkscape:cy="77.972276"
     inkscape:window-width="1366"
     inkscape:window-height="713"
     inkscape:window-x="0"
     inkscape:window-y="0"
     inkscape:window-maximized="1"
     inkscape:current-layer="svg4" />
  <path
     fill="#E44D26"
     d="M19.569 27l8.087 89.919 36.289 9.682 36.39-9.499L108.431 27H19.569zM91.61 47.471l-.507 5.834L90.88 56H48.311l1.017 12h40.54l-.271 2.231-2.615 28.909-.192 1.69L64 106.964v-.005l-.027.012-22.777-5.916L39.65 84h11.168l.791 8.46 12.385 3.139.006-.234v.012l12.412-2.649L77.708 79H39.153l-2.734-30.836L36.152 45h55.724l-.266 2.471zM27.956 1.627h5.622v5.556h5.144V1.627h5.623v16.822h-5.623v-5.633h-5.143v5.633h-5.623V1.627zm23.782 5.579h-4.95V1.627h15.525v5.579h-4.952v11.243h-5.623V7.206zm13.039-5.579h5.862l3.607 5.911 3.603-5.911h5.865v16.822h-5.601v-8.338l-3.867 5.981h-.098l-3.87-5.981v8.338h-5.502V1.627zm21.736 0h5.624v11.262h7.907v5.561H86.513V1.627z"
     id="path2" />
  <path
     fill="#e44d26"
     d="m 27.956,1.627 h 5.622 v 5.556 h 5.144 V 1.627 h 5.623 v 16.822 h -5.623 v -5.633 h -5.143 v 5.633 h -5.623 z m 23.782,5.579 h -4.95 V 1.627 H 62.313 V 7.206 H 57.361 V 18.449 H 51.738 Z M 64.777,1.627 h 5.862 l 3.607,5.911 3.603,-5.911 h 5.865 v 16.822 h -5.601 v -8.338 l -3.867,5.981 h -0.098 l -3.87,-5.981 v 8.338 H 64.776 V 1.627 Z m 21.736,0 h 5.624 v 11.262 h 7.907 V 18.45 H 86.513 Z"
     id="path2-3"
     sodipodi:nodetypes="cccccccccccccccccccccccccccccccccccccccccccc"
     style="fill:#f5f5f5;fill-opacity:1" />
</svg>
